PathFileType	4	(X/Y/Z)	D:\TRACE\spot_10-12-23\spot_body_motion_2_1-platform.trc
DataRate	CameraRate	NumFrames	NumMarkers	Units	OrigDataRate	OrigDataStartFrame	OrigNumFrames
100.00	100.00	      54	5	mm	100.00	6126	      7000
Frame#	Time	Left_Front			Right_Front			Left_Aft			Right_Aft			Post			
		X1	Y1	Z1	X2	Y2	Z2	X3	Y3	Z3	X4	Y4	Z4	X5	Y5	Z5	

6126	61.250	-733.42297	43.00714	-631.95764	839.35211	47.41955	-625.13995	-650.19879	-19.77994	504.07394	767.13239	-19.21606	590.28265	49.23534	796.37750	-909.67798	
6127	61.260	-732.80273	43.96600	-631.40497	839.80804	48.52430	-624.68378	-649.72137	-20.66764	504.34882	767.76801	-20.42432	590.55994	49.75180	798.24982	-907.90973	
6128	61.270	-732.32141	45.19617	-631.05719	840.26416	49.74688	-624.44037	-649.12091	-21.65363	504.68231	768.17151	-21.37739	590.89038	50.15396	800.04260	-905.92108	
6129	61.280	-731.99683	46.35505	-630.67480	840.43842	51.15356	-624.06525	-648.87067	-22.30847	504.90851	768.70703	-22.48511	591.12964	50.55172	801.68536	-904.25464	
6130	61.290	-731.59033	47.65817	-630.40405	840.83026	52.03054	-623.72858	-648.39771	-23.62311	505.48999	768.91925	-23.44759	591.16425	50.93581	803.44824	-902.33600	
6131	61.300	-731.29895	48.91864	-630.04492	841.30518	53.42369	-623.18848	-648.02063	-24.52135	505.88312	769.27313	-24.58327	591.40887	51.21152	805.29059	-900.58960	
6132	61.310	-731.18512	49.96880	-629.52362	841.43762	54.53549	-622.86688	-647.91162	-24.99743	505.74704	769.40149	-25.36567	591.64154	51.35610	806.86188	-898.71667	
6133	61.320	-730.87927	51.37759	-629.37158	842.01984	55.77103	-622.53809	-647.28430	-25.96664	506.30246	769.77771	-26.38209	591.81079	51.85345	808.32544	-897.04767	
6134	61.330	-730.73981	52.44131	-629.01050	842.03778	56.74000	-622.12921	-647.47522	-26.52924	506.28256	769.88263	-27.26206	592.03925	51.99131	809.96613	-895.28687	
6135	61.340	-730.54877	53.35049	-628.74158	842.03845	57.79406	-621.93573	-647.54785	-27.37592	506.59589	770.02350	-28.30931	592.32129	52.01112	811.41107	-893.65399	
6136	61.350	-730.47760	54.53964	-628.38879	842.23444	59.05762	-621.66998	-647.19379	-28.16388	506.76477	770.21729	-29.24031	592.68243	52.19596	812.92871	-892.12701	
6137	61.360	-730.47076	55.44588	-628.05695	842.19672	59.87229	-621.20294	-647.02588	-28.95199	507.02594	770.40027	-29.86765	592.75513	52.10067	814.41919	-890.81909	
6138	61.370	-730.43671	56.52394	-627.75568	842.17450	60.72483	-621.06696	-647.19147	-29.37626	507.05569	770.32251	-30.70408	592.96814	52.12109	815.82391	-889.27051	
6139	61.380	-730.46344	57.50851	-627.40051	842.20068	61.97131	-620.69196	-647.31219	-30.02488	507.18060	770.22418	-31.58769	593.02045	52.02197	816.89642	-888.07495	
6140	61.390	-730.50769	58.19552	-627.02985	842.28937	62.75582	-620.45404	-647.14551	-30.70502	507.45639	770.36273	-32.55246	593.31842	52.04465	818.38385	-886.65240	
6141	61.400	-730.40503	59.02325	-626.71985	841.94788	63.68629	-620.17908	-646.96942	-31.66152	507.80780	770.34027	-32.99287	593.42450	52.17296	819.53571	-885.40222	
6142	61.410	-730.42334	60.24352	-626.63647	842.07697	64.39341	-619.79230	-647.02747	-32.20017	507.95840	770.27527	-33.62713	593.62103	52.01774	820.74359	-884.25842	
6143	61.420	-730.53198	60.59055	-626.43536	842.04224	65.25435	-619.53204	-647.38068	-32.62818	508.01047	770.00854	-34.61102	593.78131	51.61054	821.88092	-883.09711	
6144	61.430	-730.84326	61.38541	-626.01917	841.61816	66.08874	-619.22040	-647.68689	-33.21233	508.14795	770.02374	-35.23142	593.88922	51.83029	822.96771	-881.83344	
6145	61.440	-731.26672	62.31707	-625.70068	841.29193	66.85877	-618.99084	-647.89575	-33.84478	508.30783	769.58362	-35.80172	594.08124	51.28910	824.11041	-880.75439	
6146	61.450	-731.64386	63.02140	-625.34216	840.91669	67.47320	-618.76367	-648.12415	-34.45560	508.33026	768.85840	-36.25436	593.40546	50.97803	825.06201	-879.70801	
6147	61.460	-731.96118	64.00834	-625.16254	840.56738	68.06754	-618.53430	-648.35278	-34.92884	508.48419	768.22614	-37.09504	593.57599	50.50154	826.29413	-878.62842	
6148	61.470	-732.28198	64.48595	-625.09778	840.25232	68.82925	-618.36548	-648.62177	-35.51167	508.68365	767.97687	-37.51488	593.75562	50.21444	827.05841	-877.44232	
6149	61.480	-732.59894	64.95184	-624.89722	840.01422	69.59307	-618.09576	-648.89728	-35.92215	508.92191	767.72571	-38.11314	594.13995	50.13589	827.75549	-876.41608	
6150	61.490	-732.74542	65.37924	-624.64343	839.77258	70.03939	-617.91089	-649.43469	-36.23381	508.96646	767.45367	-38.55890	594.29297	49.79464	828.46143	-875.57861	
6151	61.500	-733.24957	65.92117	-624.30206	839.48322	70.48755	-617.73755	-650.01459	-36.63102	509.08109	767.12042	-39.12876	594.48993	49.00698	829.28986	-874.71539	
6152	61.510	-733.82684	66.57831	-624.14331	838.80432	71.14043	-617.64618	-650.38550	-36.89434	509.17648	766.90765	-39.74151	594.81689	48.51394	830.05762	-874.05865	
6153	61.520	-734.22064	66.92460	-623.88263	838.23663	71.52103	-617.46991	-650.70233	-37.33599	509.27429	766.53741	-40.02663	594.91882	48.10042	830.60992	-873.39905	
6154	61.530	-734.59198	67.30425	-623.87592	837.75745	71.78498	-617.40155	-651.26337	-37.63702	509.28995	766.04944	-40.39580	595.00604	47.39035	831.22900	-872.71283	
6155	61.540	-735.24670	68.12119	-623.87524	837.19739	72.26208	-617.18213	-651.66254	-37.89816	509.32605	765.41351	-40.74790	595.09570	47.09429	831.77319	-872.03357	
6156	61.550	-735.68024	68.46440	-623.80548	836.73383	72.56601	-617.10095	-652.13074	-38.17664	509.36414	764.84875	-41.03926	595.13470	46.81019	832.44507	-871.54083	
6157	61.560	-736.14905	68.75526	-623.64813	836.39233	73.02258	-616.90668	-652.74597	-38.39161	509.42355	764.42664	-41.21999	595.19562	46.02664	833.11267	-871.27283	
6158	61.570	-736.72119	69.10043	-623.56689	836.00208	73.41012	-616.74042	-653.25092	-38.57158	509.43283	763.94012	-41.46828	595.19434	45.89848	833.34674	-870.80334	
6159	61.580	-737.39044	69.43736	-623.40247	835.51630	73.59546	-616.65778	-653.65924	-38.60355	509.44144	763.47736	-41.70323	595.14642	45.05468	833.69000	-870.35089	
6160	61.590	-737.66150	69.23341	-623.19415	834.82257	73.74221	-616.68481	-654.19476	-38.78550	509.51401	763.05792	-41.99206	595.23926	44.37633	834.00043	-870.05365	
6161	61.600	-738.32141	69.47597	-623.22650	834.16931	73.93230	-616.53717	-654.92377	-39.13696	509.39514	762.41431	-42.25747	595.25861	43.92128	834.24731	-869.67828	
6162	61.610	-738.83496	69.75098	-623.27209	833.58655	74.18030	-616.45538	-655.61096	-39.08833	509.58569	761.64728	-42.36197	595.30212	43.54606	834.35809	-869.30621	
6163	61.620	-739.55884	69.96662	-623.14557	833.17609	74.44114	-616.43109	-656.05847	-39.25034	509.70819	761.05511	-42.40726	595.34778	43.05759	834.50543	-869.08221	
6164	61.630	-740.32275	70.26919	-623.06482	832.63715	74.45939	-616.42926	-656.65137	-39.43599	509.73239	760.44995	-42.47126	595.30548	42.09249	834.72211	-868.82391	
6165	61.640	-740.89703	70.25814	-623.06714	831.62708	74.43851	-616.47809	-657.30212	-39.54684	509.81107	760.08002	-42.59985	595.25690	41.54021	834.81494	-868.72125	
6166	61.650	-741.39429	70.12280	-623.14050	831.06061	74.32155	-616.30865	-657.93243	-39.61009	509.84192	759.35168	-42.67102	595.27777	41.06192	834.71716	-868.69299	
6167	61.660	-742.08838	70.08906	-623.15704	830.58142	74.35378	-616.37402	-658.72461	-39.54844	509.81409	758.41174	-42.49542	595.37439	40.55104	834.80884	-868.71344	
6168	61.670	-742.73755	70.03735	-623.09912	830.02563	74.46609	-616.44598	-659.44196	-39.53830	509.88831	757.89972	-42.45142	595.47260	39.70610	834.88501	-868.93335	
6169	61.680	-743.83588	70.00082	-623.12787	829.11542	74.41070	-616.56879	-660.39050	-38.82875	508.63690	757.23706	-42.25885	595.53137	38.67762	834.75989	-869.22974	
6170	61.690	-744.24573	69.94076	-623.26031	828.15356	74.18687	-616.63770	-661.00665	-38.76552	508.77603	756.37708	-42.26837	595.43109	38.10784	834.43372	-869.39673	
6171	61.700	-745.02094	69.74209	-623.40442	827.42053	73.91399	-616.56427	-661.92120	-38.75816	508.87549	755.46381	-42.25092	595.27972	37.61394	834.12903	-869.46033	
6172	61.710	-745.75067	69.47910	-623.28046	826.88263	73.80502	-616.51959	-662.55127	-38.68737	508.96494	754.90308	-42.10526	595.29309	36.81821	833.87000	-869.96521	
6173	61.720	-746.64307	69.17504	-623.38141	826.02472	73.53094	-616.67859	-663.23297	-38.66114	508.94385	753.99634	-41.75546	595.27887	36.06793	833.71271	-870.26373	
6174	61.730	-747.54993	69.38992	-623.40088	825.11237	73.43889	-616.67065	-664.01947	-38.60312	508.87207	753.46307	-41.59203	595.28821	35.06675	833.36804	-870.61584	
6175	61.740	-748.30615	69.14315	-623.61786	824.38470	73.28702	-616.86249	-664.71735	-38.27853	508.91409	752.57843	-41.29202	595.13275	34.54560	832.93347	-870.88757	
6176	61.750	-748.95642	68.43226	-623.58325	823.60803	72.68810	-617.06671	-665.70483	-37.78407	508.77750	751.74335	-40.97840	595.16174	33.30794	832.38837	-871.37701	
6177	61.760	-749.81702	67.96311	-623.82239	822.82294	72.23182	-617.13068	-666.49237	-37.70782	508.72470	750.94415	-40.71851	595.21283	32.71452	831.86224	-871.72595	
6178	61.770	-750.57782	67.65611	-623.94202	821.89471	71.92943	-617.25616	-667.58740	-37.36457	508.62366	750.04065	-40.56913	595.10718	31.89658	831.29620	-872.20123	
6179	61.780	-751.63654	66.95206	-623.96088	821.25531	71.57128	-617.32642	-667.98285	-37.37269	509.11902	748.88483	-40.11031	594.97931	30.80133	830.62610	-873.06750	
